<svg viewBox="0 0 520 600" xmlns="http://www.w3.org/2000/svg" aria-hidden="true">
  <g fill="none" stroke="#D7DEE3" stroke-width="1.5">
    <line x1="60" y1="80" x2="180" y2="140"/>
    <line x1="180" y1="140" x2="150" y2="260"/>
    <line x1="180" y1="140" x2="320" y2="120"/>
    <line x1="320" y1="120" x2="420" y2="200"/>
    <line x1="150" y1="260" x2="280" y2="320"/>
    <line x1="280" y1="320" x2="420" y2="200"/>
    <line x1="280" y1="320" x2="230" y2="440"/>
    <line x1="230" y1="440" x2="360" y2="500"/>
    <line x1="420" y1="200" x2="470" y2="340"/>
    <line x1="470" y1="340" x2="360" y2="500"/>
  </g>
  <g fill="#D7DEE3">
    <circle cx="60" cy="80" r="6"/>
    <circle cx="320" cy="120" r="6"/>
    <circle cx="150" cy="260" r="6"/>
    <circle cx="420" cy="200" r="6"/>
    <circle cx="280" cy="320" r="6"/>
    <circle cx="470" cy="340" r="6"/>
    <circle cx="230" cy="440" r="6"/>
    <circle cx="360" cy="500" r="6"/>
  </g>
  <circle cx="180" cy="140" r="8" fill="#6B4E8E"/>
</svg>
